# File created by Blade
# Date/Time:  Tue Apr 07 20:41:02 2015
# Frame Rate: 120.000 fps
#------------------------------------------------------
:FULLY-SPECIFIED
:DEGREES
740
root 0.140102 34.503850 -0.584664 18.896451 -20.473072 -51.786919
Spine 4.777441 27.188654 37.477308
Head 3.674289 -2.237066 14.501550
LeftShoulder -20.420828 29.101683 29.733034
LeftArm 42.421119 -74.612183 -37.647581
LeftForeArm 9.440709 -0.000000 6.898476
LeftHand 8.357565 -0.000000 12.362753
LeftHandThumb1 -26.253704 0.000000 33.147579
RightShoulder -8.707730 37.268829 -30.472831
RightArm 59.652942 78.087524 91.498773
RightForeArm 33.720631 0.000000 58.575190
RightHand 0.621514 -0.000000 29.131420
RightHandThumb1 -24.326973 -0.000000 -32.862282
LeftUpLeg -4.888464 6.635241 42.561079
LeftLeg 17.540988 -0.000000 -0.000000
LeftFoot -20.248324 41.384992 -16.706610
LeftToeBase -2.849871 -0.000000 0.000000
RightUpLeg -132.749794 -54.083866 20.458159
RightLeg -7.688700 -0.000000 0.000000
RightFoot 36.199081 -18.088022 11.921958
RightToeBase 16.726995 -0.000000 -0.000000
741
root 0.151099 34.508568 -0.599321 18.819294 -20.428956 -51.666112
Spine 4.745508 27.106631 37.408523
Head 3.952353 -2.293663 14.332090
LeftShoulder -20.356939 29.092153 29.835565
LeftArm 43.386324 -74.554399 -38.400898
LeftForeArm 9.669380 0.000000 7.129420
LeftHand 8.056160 -0.000000 12.971545
LeftHandThumb1 -26.253704 0.000000 33.147579
RightShoulder -8.643305 37.217616 -30.434943
RightArm 59.929844 78.139771 91.793240
RightForeArm 33.762277 -0.000000 58.564360
RightHand 0.607505 0.000000 29.154772
RightHandThumb1 -24.326973 -0.000000 -32.862282
LeftUpLeg -4.869406 6.733859 42.473910
LeftLeg 17.426197 -0.000000 -0.000000
LeftFoot -20.798152 40.800608 -17.379174
LeftToeBase -2.242138 -0.000000 0.000000
RightUpLeg -132.891595 -54.082448 20.545149
RightLeg -7.599558 -0.000000 0.000000
RightFoot 36.297028 -17.948957 11.786496
RightToeBase 16.760819 -0.000000 -0.000000
742
root 0.162789 34.515224 -0.607973 18.751314 -20.373882 -51.537319
Spine 4.680284 27.077330 37.348364
Head 4.255021 -2.395977 14.103269
LeftShoulder -20.284559 29.134115 29.886603
LeftArm 44.713615 -74.563647 -39.434654
LeftForeArm 10.069012 -0.000000 7.239461
LeftHand 7.997322 -0.000000 12.752726
LeftHandThumb1 -26.253704 0.000000 33.147579
RightShoulder -8.659723 37.183944 -30.473909
RightArm 60.145122 78.169102 92.037151
RightForeArm 33.789759 -0.000000 58.611560
RightHand 0.618333 -0.000000 29.156554
RightHandThumb1 -24.326973 -0.000000 -32.862282
LeftUpLeg -4.811078 6.854997 42.374991
LeftLeg 17.229507 -0.000000 -0.000000
LeftFoot -21.347551 40.179811 -18.090500
LeftToeBase -1.646071 -0.000000 0.000000
RightUpLeg -133.063635 -54.108018 20.665436
RightLeg -7.594712 -0.000000 0.000000
RightFoot 36.330024 -17.886378 11.691598
RightToeBase 16.798772 -0.000000 -0.000000
743
root 0.174297 34.524108 -0.613137 18.680884 -20.309717 -51.411178
Spine 4.606935 27.038044 37.314025
Head 4.571047 -2.482620 13.793862
LeftShoulder -20.201946 29.092031 29.948407
LeftArm 45.476715 -74.388887 -39.880119
LeftForeArm 10.250736 0.000000 7.278387
LeftHand 8.069573 -0.000000 12.432507
LeftHandThumb1 -26.253704 0.000000 33.147579
RightShoulder -8.687434 37.251548 -30.563190
RightArm 59.879390 78.187565 91.809250
RightForeArm 33.825773 -0.000000 58.722332
RightHand 0.588139 -0.000000 29.119387
RightHandThumb1 -24.326973 -0.000000 -32.862282
LeftUpLeg -4.744565 7.072225 42.289289
LeftLeg 17.020796 -0.000000 -0.000000
LeftFoot -21.806350 39.441323 -18.763815
LeftToeBase -1.121061 -0.000000 0.000000
RightUpLeg -133.218060 -54.148312 20.790434
RightLeg -7.682602 -0.000000 0.000000
RightFoot 36.381415 -17.763233 11.421833
RightToeBase 16.489649 -0.000000 -0.000000
744
root 0.188159 34.535746 -0.614745 18.591402 -20.233456 -51.298036
Spine 4.556183 26.994430 37.333711
Head 4.892598 -2.599889 13.428104
LeftShoulder -20.081286 29.064288 30.000567
LeftArm 46.102412 -74.213170 -40.241749
LeftForeArm 10.263965 0.000000 7.356558
LeftHand 8.066831 -0.000000 12.198405
LeftHandThumb1 -26.253704 0.000000 33.147579
RightShoulder -8.704976 37.287969 -30.672643
RightArm 59.619311 78.204526 91.554890
RightForeArm 33.908539 -0.000000 58.878960
RightHand 0.551685 -0.000000 29.214274
RightHandThumb1 -24.326973 -0.000000 -32.862282
LeftUpLeg -4.670891 7.333112 42.224000
LeftLeg 16.812175 -0.000000 -0.000000
LeftFoot -22.151236 38.752434 -19.386399
LeftToeBase -0.720171 -0.000000 0.000000
RightUpLeg -133.346369 -54.201523 20.944588
RightLeg -7.869911 -0.000000 0.000000
RightFoot 36.338634 -17.747265 11.293557
RightToeBase 16.733868 -0.000000 -0.000000
